<svg role="img" aria-hidden="true" width="100%" height="100%" viewBox="0 0 20 20" fill="none" aria-labelledby="DialpadIcon-:rpo:"><path fill="currentColor" fill-rule="evenodd" clip-rule="evenodd" d="M5 3c-.55 0-1 .45-1 1s.45 1 1 1 1-.45 1-1-.45-1-1-1zm6 1c0 .55-.45 1-1 1s-1-.45-1-1 .45-1 1-1 1 .45 1 1zm0 4c0 .55-.45 1-1 1s-1-.45-1-1 .45-1 1-1 1 .45 1 1zm-1 5c.55 0 1-.45 1-1s-.45-1-1-1-1 .45-1 1 .45 1 1 1zm1 3c0 .55-.45 1-1 1s-1-.45-1-1 .45-1 1-1 1 .45 1 1zM4 8c0-.55.45-1 1-1s1 .45 1 1-.45 1-1 1-1-.45-1-1zm1 3c-.55 0-1 .45-1 1s.45 1 1 1 1-.45 1-1-.45-1-1-1zm11-7c0 .55-.45 1-1 1s-1-.45-1-1 .45-1 1-1 1 .45 1 1zm-1 5c.55 0 1-.45 1-1s-.45-1-1-1-1 .45-1 1 .45 1 1 1zm1 3c0 .55-.45 1-1 1s-1-.45-1-1 .45-1 1-1 1 .45 1 1z"></path></svg>